<?xml version="1.0" encoding="UTF-8"?>
<svg id="Layer_5" xmlns="http://www.w3.org/2000/svg" xmlns:xlink="http://www.w3.org/1999/xlink" version="1.1" viewBox="0 0 1381.8 1400">
  <!-- Generator: Adobe Illustrator 30.3.0, SVG Export Plug-In . SVG Version: 2.1.3 Build 182)  -->
  <defs>
    <style>
      .st0, .st1, .st2, .st3 {
        fill: none;
      }

      .st4 {
        fill: #ebedef;
      }

      .st5, .st6 {
        fill: #ebedef;
      }

      .st1 {
        stroke: #f9fafa;
      }

      .st7 {
        fill: #3cc755;
      }

      .st8 {
        fill: #10120f;
      }

      .st9, .st10 {
        fill: #fff;
      }

      .st6, .st10 {
        fill-opacity: 0;
      }

      .st11 {
        fill: url(#linear-gradient);
        fill-rule: evenodd;
      }

      .st2 {
        stroke: #ebedef;
        stroke-miterlimit: 10;
      }

      .st3 {
        stroke: #3cc755;
        stroke-linecap: square;
        stroke-width: 3px;
      }
    </style>
    <linearGradient id="linear-gradient" x1="803.1" y1="882.9" x2="803.1" y2="698.7" gradientTransform="translate(0 1333) scale(1 -1)" gradientUnits="userSpaceOnUse">
      <stop offset="0" stop-color="#3cc755" stop-opacity=".2"/>
      <stop offset="1" stop-color="#3cc755" stop-opacity="0"/>
    </linearGradient>
  </defs>
  <rect class="st9" x="2.6" y="2.7" width="1376.4" height="1394.5"/>
  <rect class="st5" x="301.9" y="53.7" width="145.6" height="15.7"/>
  <rect class="st2" x="299.3" y="135" width="1007.6" height="598.9" rx="32.7" ry="32.7"/>
  <path class="st2" d="M332.1,764.3h942.1c18.1,0,32.7,11.2,32.7,24.9v406.3c0,13.8-14.7,24.9-32.7,24.9H332.1c-18.1,0-32.7-11.2-32.7-24.9v-406.3c0-13.8,14.7-24.9,32.7-24.9Z"/>
  <path class="st1" d="M445.5,634.9h809.7"/>
  <path class="st11" d="M351.1,624.6s311.4,0,415.9,0,50.1-87.6,127.3-87.6,77.2-87.6,161-87.6h199.9v185H351.1v-9.7Z"/>
  <path class="st3" d="M351.1,625.2s310.5,0,414.7,0,49.9-87.9,126.9-87.9,77-88,160.5-88h199.3"/>
  <rect class="st4" x="630" y="665.3" width="54.7" height="7.7"/>
  <rect class="st4" x="913.1" y="665.3" width="55" height="7.7"/>
  <rect class="st4" x="469.5" y="198.1" width="92.9" height="7.7"/>
  <rect class="st4" x="577" y="198.1" width="92.9" height="7.7"/>
  <rect class="st4" x="1168.2" y="198.1" width="92.9" height="7.7"/>
  <rect class="st4" x="354.2" y="198.1" width="95.5" height="7.7"/>
  <rect class="st4" x="1197.7" y="665.3" width="55" height="7.7"/>
  <rect class="st4" x="352" y="665.3" width="51" height="7.7"/>
  <rect class="st2" x="348.5" y="264.2" width="277.6" height="78.4" rx="18" ry="18"/>
  <rect class="st2" x="660.3" y="265" width="277.6" height="78.4" rx="18" ry="18"/>
  <rect class="st2" x="986.8" y="265.8" width="277.6" height="78.4" rx="18" ry="18"/>
  <line class="st2" x1="349.1" y1="506.7" x2="1256" y2="506.7"/>
  <line class="st2" x1="349.1" y1="463" x2="1256" y2="463"/>
  <line class="st2" x1="297" y1="114.8" x2="1374.9" y2="114.8"/>
  <line class="st2" x1="349.1" y1="550.3" x2="1256" y2="550.3"/>
  <line class="st2" x1="349.1" y1="594" x2="1256" y2="594"/>
  <rect class="st10" x="300.4" y="941.6" width="1007.6" height="82.8"/>
  <rect class="st0" x="300.4" y="941.6" width="1007.6" height="82.8"/>
  <rect class="st10" x="300.4" y="1107.1" width="1007.6" height="82.8"/>
  <rect class="st0" x="300.4" y="1107.1" width="1007.6" height="82.8"/>
  <rect class="st10" x="300.4" y="858.8" width="1007.6" height="82.8"/>
  <rect class="st0" x="300.4" y="858.8" width="1007.6" height="82.8"/>
  <rect class="st10" x="300.4" y="1024.4" width="1007.6" height="82.8"/>
  <rect class="st0" x="300.4" y="1024.4" width="1007.6" height="82.8"/>
  <rect class="st4" x="351.8" y="898" width="106.1" height="7.7"/>
  <rect class="st4" x="351.8" y="824.5" width="179.4" height="7.7"/>
  <rect class="st4" x="351.8" y="980" width="47.6" height="7.7"/>
  <rect class="st4" x="351.8" y="1063.4" width="119.6" height="7.7"/>
  <rect class="st4" x="351.8" y="1146.3" width="146.9" height="7.7"/>
  <rect class="st4" x="655.9" y="898" width="106.1" height="7.7"/>
  <rect class="st4" x="655.9" y="824.5" width="179.4" height="7.7"/>
  <rect class="st4" x="655.9" y="980" width="47.6" height="7.7"/>
  <rect class="st4" x="655.9" y="1063.4" width="119.6" height="7.7"/>
  <rect class="st4" x="655.9" y="1146.3" width="146.9" height="7.7"/>
  <rect class="st4" x="904.4" y="898" width="106.1" height="7.7"/>
  <rect class="st4" x="904.4" y="824.5" width="179.4" height="7.7"/>
  <rect class="st4" x="904.4" y="980" width="47.6" height="7.7"/>
  <rect class="st4" x="904.4" y="1063.4" width="119.6" height="7.7"/>
  <rect class="st4" x="904.4" y="1146.3" width="146.9" height="7.7"/>
  <rect class="st8" x="-3.1" width="238.5" height="1399.5"/>
  <circle class="st4" cx="45.8" cy="271" r="9.7"/>
  <rect class="st4" x="69.1" y="264.1" width="36.6" height="13.8"/>
  <circle class="st4" cx="45.8" cy="321.4" r="9.7"/>
  <rect class="st4" x="69.1" y="314.5" width="62.1" height="13.8"/>
  <circle class="st4" cx="45.8" cy="369.5" r="9.7"/>
  <rect class="st4" x="69.1" y="362.6" width="81.3" height="13.8"/>
  <circle class="st4" cx="45.8" cy="418.8" r="9.7"/>
  <rect class="st4" x="69.1" y="411.9" width="69.9" height="13.8"/>
  <circle class="st4" cx="45.8" cy="470" r="9.7"/>
  <rect class="st4" x="69.1" y="463.1" width="36.3" height="13.8"/>
  <circle class="st4" cx="45.8" cy="516.4" r="9.7"/>
  <rect class="st4" x="69.1" y="509.5" width="58.4" height="13.8"/>
  <rect class="st7" x="-3.1" y="191.5" width="196.3" height="44.8"/>
  <circle class="st9" cx="45.8" cy="216.5" r="9.7"/>
  <g>
    <path class="st5" d="M45.1,103.2h108.6c14.8,0,26.9,12,26.9,26.9h0c0,14.8-12,26.9-26.9,26.9H45.1c-14.8,0-26.9-12-26.9-26.9h0c0-14.8,12-26.9,26.9-26.9Z"/>
    <path class="st5" d="M46.3,135.1h1.7v-8.1l5,8.1h1.9v-11h-1.8v8.1l-5-8.1h-1.9v11ZM56.5,131.1c0,2.1,1.4,4.1,4,4.1s3.2-.9,3.6-2.4l-1.6-.4c-.2.9-1,1.3-2,1.3s-2.2-.8-2.3-2.2h6c0-.2,0-.5,0-.7,0-1.9-1.4-3.8-3.9-3.8s-3.9,1.9-3.9,4.1ZM58.3,130.2c.2-1.2,1-1.8,2.1-1.8s2,.8,2.1,1.8h-4.2ZM67.3,135.1h1.6l1.7-5.5,1.7,5.5h1.6l2.4-7.9h-1.7l-1.5,5.5-1.7-5.5h-1.6l-1.7,5.5-1.5-5.5h-1.7l2.5,7.9ZM85.4,126.5l1.7,4.4h-3.3l1.7-4.4ZM80.3,135.1h1.9l1-2.6h4.5l1,2.6h1.9l-4.3-11h-1.7l-4.3,11ZM94.9,135.2c1.9,0,3.3-1,3.6-2.6l-1.7-.3c-.2.9-.9,1.5-1.9,1.5s-2.3-1-2.3-2.6.9-2.6,2.3-2.6,1.7.6,1.9,1.5l1.7-.3c-.3-1.6-1.7-2.7-3.6-2.7s-4,1.6-4,4.1,1.6,4.1,4,4.1ZM104.4,135v-1.5c-.4.1-.8.2-1.1.2-.6,0-1.1-.4-1.1-1.2v-3.9h2v-1.5h-2v-2.4h-1.7v2.4h-1.4v1.5h1.4v4c0,1.8,1.1,2.6,2.6,2.6s.9,0,1.3-.2ZM105.7,135.1h1.7v-7.9h-1.7v7.9ZM105.6,125.9h1.9v-1.9h-1.9v1.9ZM113,135.2c2.4,0,4.1-1.7,4.1-4.1s-1.7-4.1-4.1-4.1-4.1,1.7-4.1,4.1,1.7,4.1,4.1,4.1ZM110.6,131.1c0-1.5.9-2.6,2.4-2.6s2.4,1.1,2.4,2.6-1,2.6-2.4,2.6-2.4-1.1-2.4-2.6ZM118.5,135.1h1.7v-3.5c0-1.9.8-3,2.1-3s1.6.7,1.6,1.7v4.8h1.7v-5.2c0-1.7-1.2-2.8-2.9-2.8s-2.1.6-2.6,1.4v-1.3h-1.7v7.9Z"/>
    <circle class="st6" cx="144.7" cy="130" r="9"/>
    <path class="st5" d="M149.2,128.9l-4.1,4.1c-.2.2-.6.2-.8,0l-4.1-4.1"/>
  </g>
  <path class="st5" d="M1006.2,175.1h108.6c14.8,0,26.9,12,26.9,26.9h0c0,14.8-12,26.9-26.9,26.9h-108.6c-14.8,0-26.9-12-26.9-26.9h0c0-14.8,12-26.9,26.9-26.9Z"/>
  <rect class="st4" x="69.1" y="209.6" width="62.1" height="13.8"/>
</svg>